# xmcd
#
# Track frame offsets:
# 150
# 4717
# 31080
# 53391
# 76749
# 94447
# 117792
# 148316
# 169321
# 188772
# 211088
# 234533
# 255433
# 276488
# 299062
# 318181
#
# Disc length: 4642 seconds
#
# Revision: 0
# Processed by: cddbd v1.5.1PL2 Copyright (c) Steve Scherf et al.
# Submitted via: Audion 3.0.2 (http://www.panic.com/audion/)
#
DISCID=dc122010
DTITLE=Depeche Mode - 101
DYEAR=1900
DGENRE=
TTITLE0=Pimpf
TTITLE1=Behind the Wheel
TTITLE2=Strangelove
TTITLE3=Sacred
TTITLE4=Something to Do
TTITLE5=Blasphemous Rumours
TTITLE6=Stripped
TTITLE7=Somebody
TTITLE8=The Things You Said
TTITLE9=Black Celebration
TTITLE10=Shake the Disease
TTITLE11=Nothing
TTITLE12=Pleasure Little Treasure
TTITLE13=People Are People
TTITLE14=A Question of Time
TTITLE15=Never Let Me Down Again
EXTD=
EXTT0=
EXTT1=
EXTT2=
EXTT3=
EXTT4=
EXTT5=
EXTT6=
EXTT7=
EXTT8=
EXTT9=
EXTT10=
EXTT11=
EXTT12=
EXTT13=
EXTT14=
EXTT15=
PLAYORDER=
